<svg xmlns="http://www.w3.org/2000/svg">

<style>
<![CDATA[

/*** styles for raiload diagrams */

svg.railroad-diagram {}

svg.railroad-diagram path {
  stroke-width: 3;
  stroke: black;
  fill: rgba(0, 0, 0, 0);
}

svg.railroad-diagram text {
  font: bold 14px monospace;
  text-anchor: middle;
}

svg.railroad-diagram text.label {
  text-anchor: start;
}

svg.railroad-diagram text.comment {
  font: italic 12px monospace;
}

svg.railroad-diagram rect {
  stroke-width: 3;
  stroke: black;
  fill: hsl(120, 100%, 90%);
}

]]>
</style>
<svg class="railroad-diagram" width="421" height="70" viewBox="0 0 421 70">
<g transform="translate(.5 .5)">
<path d="M 4 15 v 20 m 0 -10 h 20.5"></path>
<path d="M24 25h10"></path>
<g>
<path d="M34 25h0"></path>
<path d="M62 25h0"></path>
<rect x="34" y="14" width="28" height="22" rx="10" ry="10"></rect>
<text x="48" y="29">{</text>
</g>
<path d="M62 25h10"></path>
<g>
<path d="M72 25h0"></path>
<path d="M348 25h0"></path>
<path d="M72 25a10 10 0 0 0 10 -10v0a10 10 0 0 1 10 -10"></path>
<g>
<path d="M92 5h236"></path>
</g>
<path d="M328 5a10 10 0 0 1 10 10v0a10 10 0 0 0 10 10"></path>
<path d="M72 25h20"></path>
<g>
<path d="M92 25h0"></path>
<path d="M328 25h0"></path>
<path d="M92 25h10"></path>
<g>
<path d="M102 25h0"></path>
<path d="M318 25h0"></path>
<path d="M102 25h10"></path>
<g>
<path d="M112 25h0"></path>
<path d="M180 25h0"></path>
<rect x="112" y="14" width="68" height="22"></rect>
<text x="146" y="29">string</text>
</g>
<path d="M180 25h10"></path>
<path d="M190 25h10"></path>
<g>
<path d="M200 25h0"></path>
<path d="M228 25h0"></path>
<rect x="200" y="14" width="28" height="22" rx="10" ry="10"></rect>
<text x="214" y="29">:</text>
</g>
<path d="M228 25h10"></path>
<path d="M238 25h10"></path>
<g>
<path d="M248 25h0"></path>
<path d="M308 25h0"></path>
<rect x="248" y="14" width="60" height="22"></rect>
<text x="278" y="29">value</text>
</g>
<path d="M308 25h10"></path>
</g>
<path d="M318 25h10"></path>
<path d="M102 25a10 10 0 0 0 -10 10v10a10 10 0 0 0 10 10"></path>
<g>
<path d="M102 55h94"></path>
<path d="M224 55h94"></path>
<rect x="196" y="44" width="28" height="22" rx="10" ry="10"></rect>
<text x="210" y="59">,</text>
</g>
<path d="M318 55a10 10 0 0 0 10 -10v-10a10 10 0 0 0 -10 -10"></path>
</g>
<path d="M328 25h20"></path>
</g>
<path d="M348 25h10"></path>
<g>
<path d="M358 25h0"></path>
<path d="M386 25h0"></path>
<rect x="358" y="14" width="28" height="22" rx="10" ry="10"></rect>
<text x="372" y="29">}</text>
</g>
<path d="M386 25h10"></path>
<path d="M 396 25 h 20 m 0 -10 v 20"></path>
</g>
</svg>

</svg>