<svg xmlns="http://www.w3.org/2000/svg">

<style>
<![CDATA[

/*** styles for raiload diagrams */

svg.railroad-diagram {}

svg.railroad-diagram path {
  stroke-width: 3;
  stroke: black;
  fill: rgba(0, 0, 0, 0);
}

svg.railroad-diagram text {
  font: bold 14px monospace;
  text-anchor: middle;
}

svg.railroad-diagram text.label {
  text-anchor: start;
}

svg.railroad-diagram text.comment {
  font: italic 12px monospace;
}

svg.railroad-diagram rect {
  stroke-width: 3;
  stroke: black;
  fill: hsl(120, 100%, 90%);
}

]]>
</style>
<svg class="railroad-diagram" width="157" height="210" viewBox="0 0 157 210">
<g transform="translate(.5 .5)">
<path d="M 4 5 v 20 m 0 -10 h 20.5"></path>
<g>
<path d="M24 15h0"></path>
<path d="M132 15h0"></path>
<path d="M24 15h20"></path>
<g>
<path d="M44 15h0"></path>
<path d="M112 15h0"></path>
<rect x="44" y="4" width="68" height="22"></rect>
<text x="78" y="19">string</text>
</g>
<path d="M112 15h20"></path>
<path d="M24 15a10 10 0 0 1 10 10v10a10 10 0 0 0 10 10"></path>
<g>
<path d="M44 45h0"></path>
<path d="M112 45h0"></path>
<rect x="44" y="34" width="68" height="22"></rect>
<text x="78" y="49">number</text>
</g>
<path d="M112 45a10 10 0 0 0 10 -10v-10a10 10 0 0 1 10 -10"></path>
<path d="M24 15a10 10 0 0 1 10 10v40a10 10 0 0 0 10 10"></path>
<g>
<path d="M44 75h0"></path>
<path d="M112 75h0"></path>
<rect x="44" y="64" width="68" height="22"></rect>
<text x="78" y="79">object</text>
</g>
<path d="M112 75a10 10 0 0 0 10 -10v-40a10 10 0 0 1 10 -10"></path>
<path d="M24 15a10 10 0 0 1 10 10v70a10 10 0 0 0 10 10"></path>
<g>
<path d="M44 105h4"></path>
<path d="M108 105h4"></path>
<rect x="48" y="94" width="60" height="22"></rect>
<text x="78" y="109">array</text>
</g>
<path d="M112 105a10 10 0 0 0 10 -10v-70a10 10 0 0 1 10 -10"></path>
<path d="M24 15a10 10 0 0 1 10 10v100a10 10 0 0 0 10 10"></path>
<g>
<path d="M44 135h8"></path>
<path d="M104 135h8"></path>
<rect x="52" y="124" width="52" height="22" rx="10" ry="10"></rect>
<text x="78" y="139">true</text>
</g>
<path d="M112 135a10 10 0 0 0 10 -10v-100a10 10 0 0 1 10 -10"></path>
<path d="M24 15a10 10 0 0 1 10 10v130a10 10 0 0 0 10 10"></path>
<g>
<path d="M44 165h4"></path>
<path d="M108 165h4"></path>
<rect x="48" y="154" width="60" height="22" rx="10" ry="10"></rect>
<text x="78" y="169">false</text>
</g>
<path d="M112 165a10 10 0 0 0 10 -10v-130a10 10 0 0 1 10 -10"></path>
<path d="M24 15a10 10 0 0 1 10 10v160a10 10 0 0 0 10 10"></path>
<g>
<path d="M44 195h8"></path>
<path d="M104 195h8"></path>
<rect x="52" y="184" width="52" height="22" rx="10" ry="10"></rect>
<text x="78" y="199">null</text>
</g>
<path d="M112 195a10 10 0 0 0 10 -10v-160a10 10 0 0 1 10 -10"></path>
</g>
<path d="M 132 15 h 20 m 0 -10 v 20"></path>
</g>
</svg>

</svg>